<svg width="766" height="654" viewBox="0 0 766 654" fill="none"
    xmlns="http://www.w3.org/2000/svg">
    <g clip-path="url(#clip0_437_620)">
        <rect x="99" y="197" width="55" height="457" fill="#D7D3D3"/>
        <path fill-rule="evenodd" clip-rule="evenodd" d="M201.027 381.795C295.027 383.643 383.005 379.196 459.426 369.705L457.009 433.853C397.972 439.055 334.673 440.706 268.923 438.229C245.251 437.337 221.935 435.935 199.058 434.057L201.027 381.795Z" fill="#9B9898"/>
        <path fill-rule="evenodd" clip-rule="evenodd" d="M207.027 381.795C301.027 383.643 389.005 379.196 465.426 369.705L463.009 433.853C403.972 439.055 340.673 440.706 274.923 438.229C251.251 437.337 227.935 435.935 205.058 434.057L207.027 381.795Z" fill="#9B9898"/>
        <rect x="431" y="197" width="55" height="457" fill="#9B9898"/>
        <rect x="437" y="197" width="55" height="457" fill="#9B9898"/>
        <path fill-rule="evenodd" clip-rule="evenodd" d="M0 360.805C77.3037 381.158 169.83 393 269.264 393C540.29 393 760 305.024 760 196.5C760 87.976 540.29 0 269.264 0C169.83 0 77.3037 11.8415 0 32.1948V62.4978C54.4535 56.3617 113.568 53 175.349 53C446.375 53 666.086 117.695 666.086 197.5C666.086 277.305 446.375 342 175.349 342C113.568 342 54.4535 338.638 0 332.502V360.805Z" fill="#D7D3D3"/>
        <path fill-rule="evenodd" clip-rule="evenodd" d="M6 360.805C83.3037 381.158 175.83 393 275.264 393C546.29 393 766 305.024 766 196.5C766 87.976 546.29 0 275.264 0C175.83 0 83.3037 11.8415 6 32.1948V62.4978C60.4535 56.3617 119.568 53 181.349 53C452.375 53 672.086 117.695 672.086 197.5C672.086 277.305 452.375 342 181.349 342C119.568 342 60.4535 338.638 6 332.502V360.805Z" fill="#D7D3D3"/>
        <rect x="154" y="197" width="55" height="457" fill="#9B9898"/>
    </g>
    <defs>
        <clipPath id="clip0_437_620">
            <rect width="766" height="654" fill="white"/>
        </clipPath>
    </defs>
</svg>
