<svg width="211" height="210" viewBox="0 0 211 210" fill="none"
    xmlns="http://www.w3.org/2000/svg">
    <g clip-path="url(#clip0_432_238)">
        <path fill-rule="evenodd" clip-rule="evenodd" d="M41.8271 210.006V0.0117188H187.83C200.61 0.0117188 210.994 10.3951 210.994 23.1759V186.842C210.994 199.623 200.61 210.006 187.83 210.006H41.8271Z" fill="#DE3300"/>
        <path d="M0.988281 186.842V23.1759C0.988281 10.3951 11.3716 0.0117188 24.1524 0.0117188H41.8333V210.006H24.1524C11.3716 210.006 0.988281 199.623 0.988281 186.842Z" fill="black"/>
        <path d="M94.3164 192.512H164.322V180.84H94.3164V192.512Z" fill="#FFCB00"/>
        <path d="M88.4883 204.178H105.982V169.172H88.4883V204.178Z" fill="#FFCB00"/>
        <path d="M152.987 163.346H152.707L88.4766 163.34L88.4824 151.679H146.81V140.007H88.4766V128.34H152.707L152.987 128.346C159.171 128.492 164.164 133.485 164.31 139.668V152.017C164.164 158.207 159.171 163.2 152.987 163.346Z" fill="#FFCB00"/>
        <path d="M88.4824 122.512H164.322V110.84H88.4824V122.512Z" fill="#FFCB00"/>
        <path d="M88.4707 81.6764H164.31V70.0039H88.4707V81.6764Z" fill="#FFCB00"/>
        <path d="M152.987 40.8437L99.8049 40.8379C93.6216 40.692 88.6283 35.6987 88.4824 29.5154V17.1604C88.6283 10.977 93.6216 5.9837 99.8049 5.83786L100.085 5.83203L152.707 5.83786L152.987 5.8437C159.171 5.98953 164.164 10.9829 164.31 17.1662V29.5154C164.164 35.7045 159.171 40.6979 152.987 40.8437ZM146.816 17.5045L105.982 17.4987V29.1712L146.816 29.177V17.5045Z" fill="#FFCB00"/>
        <path d="M129.316 75.8405H117.649V58.3464L105.982 58.3405V75.8405H88.4824V58.008C88.6283 51.8247 93.6216 46.8314 99.8049 46.6855L100.085 46.6797L117.707 46.6855L117.987 46.6914C124.171 46.8372 129.164 51.8305 129.31 58.0139L129.316 75.8405Z" fill="#FFCB00"/>
        <path d="M164.316 75.8405H146.816V58.3464L135.149 58.3405V75.8405H123.482V58.008C123.628 51.8247 128.622 46.8314 134.805 46.6855L135.085 46.6797L152.707 46.6855L152.987 46.6914C159.171 46.8372 164.164 51.8305 164.31 58.0139V75.8405H164.316Z" fill="#FFCB00"/>
        <path d="M135.149 116.673H117.649V99.1784L105.982 99.1725V116.673H88.4824V98.84C88.6283 92.6567 93.6216 87.6634 99.8049 87.5175L100.085 87.5117L123.541 87.5175L123.821 87.5234C130.004 87.6692 134.997 92.6625 135.143 98.8459L135.149 116.673Z" fill="#FFCB00"/>
        <path d="M129.316 110.837L164.316 99.1706V87.5039L129.316 99.1706V110.837Z" fill="#FFCB00"/>
    </g>
    <defs>
        <clipPath id="clip0_432_238">
            <rect width="211" height="210" fill="white"/>
        </clipPath>
    </defs>
</svg>
